<svg width="1200" height="1200" viewBox="0 0 1200 1200" fill="none" xmlns="http://www.w3.org/2000/svg">
  <rect width="1200" height="1200" fill="#EDFAF1"/>
  <rect width="1200" height="470" fill="#D7F2E0"/>
  <circle cx="954" cy="170" r="84" fill="#FEF3C7"/>
  <path d="M0 630C148 540 286 534 450 612C579 673 680 681 807 620C945 554 1062 549 1200 611V1200H0V630Z" fill="#5DBD76"/>
  <path d="M462 252H731V1200H462V252Z" fill="#BEE8F7"/>
  <path d="M513 252H680V1200H513V252Z" fill="#E2F5FE"/>
  <path d="M350 710C462 672 573 671 662 711C767 757 928 763 1200 674V1200H0V838C145 764 238 747 350 710Z" fill="#1F6C39"/>
  <path d="M734 1200C776 980 847 831 960 694L1030 765C937 873 879 1007 850 1200H734Z" fill="#FFF7ED"/>
  <path d="M820 1200C857 1041 913 917 997 818L1046 868C982 949 934 1060 905 1200H820Z" fill="#CBD5E1"/>
</svg>
